<svg xmlns="http://www.w3.org/2000/svg" viewBox="0 0 288.97 389.62"><defs><style>.cls-1,.cls-7{fill:#577399;}.cls-2{fill:#ff1d25;}.cls-3{fill:#ff931e;}.cls-4{fill:#2e3192;}.cls-5{fill:#009245;}.cls-6{fill:#6f6f6f;}.cls-7{stroke:#fff;stroke-miterlimit:10;stroke-width:2.48px;}.cls-8{font-size:36.72px;}.cls-10,.cls-8,.cls-9{fill:#fff;font-family:Montserrat-Regular, Montserrat;}.cls-9{font-size:37.43px;}.cls-10{font-size:38.2px;}</style></defs><title>ELearning</title><g id="Layer_2" data-name="Layer 2"><g id="Layer_1-2" data-name="Layer 1"><path class="cls-1" d="M263.6,188.78a.45.45,0,0,0,.52-.5L278.35,100c-.3,0-14.4,16.78-14.75,16.78H84.91a.45.45,0,0,0-.5.52L72.76,379.84c.2,0,11.82-19.14,12.14-19.14H263.6a.45.45,0,0,0,.52-.5V289.07q0-.34-.52-.52H156.74V272.63H263.6q.52,0,.52-.67V201a.45.45,0,0,0-.52-.5H156.74V188.78Zm-11.35-12.19a.45.45,0,0,1-.5.52h-20q9.12-9.5,20.31-20.16h.17Zm0-24.73q-13.71,14.08-25.05,25.25h-9.83v-.35q32.36-31.84,32.35-32.18,2.53,2.2,2.53,2.53Zm-9.31-23.36h8.81a.45.45,0,0,1,.5.5v9h-.17c-6.08-5.88-9.14-8.91-9.14-9.16Zm4.57,13.71q-10.84,11.17-26.91,26.94c-4.74,5.31-7.65,8-8.67,8h-9.81v-.35q38.1-38.29,40.15-39.8Zm-7.45-7.62q-42.2,42.53-42.85,42.53h-9.66Q213.14,151,235,129.52,240.06,134.25,240.06,134.58Zm-8.81-6.08q-24.54,25.06-48.44,48.62h-9.63v-.35Q205,144.59,221.59,128.5Zm-24.38,0h9.83v.32q-44.54,44.92-48.62,48.29H157.9v-.35q19-19.33,41.34-41.49C203.41,130.76,206,128.5,206.87,128.5Zm-22,0Q152,161.87,128.78,184.71c0-.77,1.14-5.19,3.4-13.21q0-.67,33.52-33.87,8.49-9.12,10-9.14Zm-43.18,6.6c.67-3.5,1.86-5.71,3.55-6.6H155q-8.64,9-15.59,15.57Zm10.65.84q6.63-7.45,8.14-7.45h9.63v.32Q150.8,148.49,134,164.75q0-.52,3.38-13.38Q137.42,150.17,152.32,135.95ZM96.43,128.5h40.65l-18.8,71.63c-1.46.7-8.74,2.43-21.85,5.26Zm8.64,220.36H96.43V333.93h.35c5.31,4.2,8.07,6.55,8.29,7.13Zm2.88,0v-5.44h.35q.15,0,6.78,5.44Zm18.13,0h-.5c-1,0-3.28-1.76-6.78-5.26v-.67l7.27-1.69Zm10.33,0h-7.1v-7.8c0-.35,2.36-1,7.1-1.86Zm10.68,0h-7.62v-10.5l7.45-1.19h.17Zm10.5,0h-7.27V336.32c4.74-1,7.15-1.54,7.27-1.54Zm13.73,0h-8V333.93q0-.67,8-2Zm10.15,0h-7.13V331.58c0-.35,2.38-1,7.13-1.86Zm10.33,0h-7.13V329l7.13-1.37Zm10.68,0h-7.62v-22c.55,0,3.1-.52,7.62-1.51Zm10.48,0h-7.28V325c0-.35,2.43-.89,7.28-1.69Zm11.87,0h-9V322.94c0-.45,2.88-1.12,8.62-2h.35Zm10.68,0h-7.8v-28.8l7.8-1.51Zm10.33,0h-7.45V318.19q0-.67,7.45-1.86Zm6.43,0h-3.38v-33.2a25.93,25.93,0,0,1,3.2-.7h.17Zm0-88.09H185.86v-.32q5.44-2.9,50.48-30.32a114.78,114.78,0,0,1,9.14,8.29c4.52,3.85,6.78,6.21,6.78,7.1Zm0-48.27V236h-.17q-21.15-19.11-25.4-23.54Zm-34.88,0q11.51,10.35,14.23,13.06c-1.12,1-5.76,3.87-13.88,8.62q-43.2,26.59-44,26.59H145.22q-.34,0-.52.52v38.78c0,.35.17.5.52.5h107v8.14L111.67,338.18q-14.9-11.84-15.25-12.36V211.65q45.59-10.5,48.27-11.17V212a.45.45,0,0,0,.52.5Zm-78.09-17.11c3.4-3.6,5.19-5.41,5.41-5.41v4.39l-5.24,1Zm13.56-18.27h-7.62c-.22,0-.4.15-.52.5v7.62q-9.31,9.65-9.63,9.66c0,1.34-3.35,2.66-10,3.9h-.17a58.08,58.08,0,0,0,1.71-7q0-.86,63-63.34h11.87v.32Z"/><path class="cls-2" d="M105.07,341.06v7.8H96.43V333.93h.35C102.09,338.13,104.84,340.49,105.07,341.06Z"/><path class="cls-1" d="M245.82,316.33v32.53h-7.45V318.19Q238.37,317.52,245.82,316.33Z"/><path class="cls-1" d="M224.82,320.9v28h-9V322.94c0-.45,2.88-1.12,8.62-2Z"/><path class="cls-1" d="M202.47,325.32v23.54h-7.62v-22C195.4,326.83,198,326.31,202.47,325.32Z"/><path class="cls-1" d="M181.47,329.71v19.14h-7.13V331.58C174.34,331.23,176.72,330.61,181.47,329.71Z"/><path class="cls-1" d="M157.58,334.78v14.08h-7.27V336.32C155,335.3,157.46,334.78,157.58,334.78Z"/><path class="cls-1" d="M136.4,339.2v9.66h-7.1v-7.8C129.3,340.71,131.66,340.09,136.4,339.2Z"/><path class="cls-1" d="M247.51,142.2q-10.84,11.17-26.91,26.94c-4.74,5.31-7.65,8-8.67,8h-9.81v-.35q38.1-38.29,40.15-39.8Z"/><path class="cls-1" d="M231.25,128.5q-24.54,25.06-48.44,48.62h-9.63v-.35Q205,144.59,221.59,128.5Z"/><path class="cls-1" d="M201.45,128.5v.32l-48.62,48.29h-7.62c-.22,0-.4.15-.52.5v7.62q-9.31,9.65-9.63,9.66c0,1.34-3.35,2.66-10,3.9h-.17a58.08,58.08,0,0,0,1.71-7q0-.86,63-63.34Z"/><path class="cls-1" d="M170.09,128.5v.32Q150.8,148.49,134,164.75q0-.52,3.38-13.38,0-1.19,14.9-15.42,6.63-7.45,8.14-7.45Z"/><path class="cls-3" d="M252.25,212.5V236h-.17q-21.15-19.11-25.4-23.54Z"/><path class="cls-4" d="M252.25,245.52v15.24H185.86v-.32q5.44-2.9,50.48-30.32a114.78,114.78,0,0,1,9.14,8.29C250,242.27,252.25,244.62,252.25,245.52Z"/><path class="cls-5" d="M137.07,128.5l-18.8,71.63c-1.46.7-8.74,2.43-21.85,5.26V128.5Z"/><path class="cls-1" d="M11.12,124.48l15.71,68.94a11.44,11.44,0,0,0,15.29,8.12h0A11.44,11.44,0,0,0,47.75,185Z"/><path class="cls-1" d="M226.13,11.67,193.84,61.81c-44.91-.12-115,28.52-138.86,54.1C32.27,112,0,104.06,0,104.06L86.78,0Z"/><path class="cls-6" d="M61.15,122.41"/><path class="cls-7" d="M201,68.31l18.55,47.83c-60.84,5.26-97.28,19.39-137.15,58.44l-21.2-54.66C85.46,94.77,156.06,67.39,201,68.31Z"/><circle class="cls-2" cx="277.35" cy="77.96" r="11.62" transform="translate(31.94 228.88) rotate(-47.29)"/><polygon class="cls-3" points="50.7 354.28 55.77 371.95 60.83 389.62 43 385.18 25.16 380.73 37.93 367.51 50.7 354.28"/><text class="cls-8" transform="matrix(0.93, -0.54, 0.41, 0.91, 85.25, 152.16)">C</text><text class="cls-9" transform="matrix(0.97, -0.19, 0.45, 0.89, 170.72, 114.61)">C</text><text class="cls-10" transform="matrix(1.07, -0.51, 0.32, 0.95, 124.66, 131.42)">K</text></g></g></svg>